<svg xmlns="http://www.w3.org/2000/svg" version="1.1" xmlns:xlink="http://www.w3.org/1999/xlink" xmlns:svgjs="http://svgjs.dev/svgjs" width="2000" height="1500" viewBox="0 0 2000 1500"><rect width="2000" height="1500" fill="#ffffff"></rect><g transform="matrix(0.75,0,0,0.75,249.090909090909,278.98548387096776)"><svg viewBox="0 0 396 248" data-background-color="#000000" preserveAspectRatio="xMidYMid meet" height="1252" width="2000" xmlns="http://www.w3.org/2000/svg" xmlns:xlink="http://www.w3.org/1999/xlink"><g id="tight-bounds" transform="matrix(1,0,0,1,0.2400000000000091,0.4000000000000057)"><svg viewBox="0 0 395.52 247.2" height="247.2" width="395.52"><g><svg></svg></g><g><svg viewBox="0 0 395.52 247.2" height="247.2" width="395.52"><mask id="c4a620e9-9374-4846-983d-0bf2d82b0be4"><rect width="395.52" height="247.2" fill="white"></rect><g transform="matrix(1,0,0,1,144.9214471780029,37.08)" id="clone"><svg viewBox="0 0 105.67710564399422 173.04" height="173.04" width="105.67710564399422"><g><svg viewBox="0 0 105.67710564399422 173.04" height="173.04" width="105.67710564399422"><g><svg viewBox="0 0 105.67710564399422 173.04" height="173.04" width="105.67710564399422"><g><svg viewBox="0 0 105.67710564399422 173.04" height="173.04" width="105.67710564399422"><g id="SvgjsG8180"><svg viewBox="0 0 105.67710564399422 173.04" height="173.04" width="105.67710564399422" id="SvgjsSvg8179"><g><svg viewBox="0 0 105.67710564399422 173.04" height="173.04" width="105.67710564399422"><g transform="matrix(1,0,0,1,0,0)"><svg width="105.67710564399422" viewBox="0.1499999999999999 -32.55 22.1 35.55" height="173.04" data-palette-color="#034b92"><path d="M6.4 0L3.15 0 3.15-29.55 12.45-29.55Q14.95-29.55 16.5-28.38 18.05-27.2 18.05-24.65L18.05-24.65 18.05-19.85Q18.05-17.3 16.53-15.9 15-14.5 12.4-14.4L12.4-14.4 12.4-14.45Q14-14.35 14.8-13.33 15.6-12.3 16.2-10.15L16.2-10.15 19.25 0 15.75 0 13.05-9.95Q12.65-11.35 12.03-12.48 11.4-13.6 10-13.6L10-13.6 6.4-13.6 6.4 0ZM6.4-27.7L6.4-15.85 10.8-15.85Q13.1-15.85 14.03-16.93 14.95-18 14.95-20.1L14.95-20.1 14.95-24.1Q14.95-25.95 14.08-26.83 13.2-27.7 11.4-27.7L11.4-27.7 6.4-27.7Z" opacity="1" transform="matrix(1,0,0,1,0,0)" fill="black" class="wordmark-text-0" id="SvgjsPath8178" stroke-width="5" stroke="black" stroke-linejoin="round"></path></svg></g></svg></g></svg></g></svg></g></svg></g></svg></g></svg></g></mask><g mask="url(#c4a620e9-9374-4846-983d-0bf2d82b0be4)"><g><path d="M166.35 220.285h-21.268v-193.37h60.858c10.906 0 19.74 2.552 26.502 7.657 6.762 5.148 10.143 13.284 10.143 24.408v0 31.41c0 11.124-3.316 19.74-9.947 25.848-6.675 6.108-15.683 9.379-27.025 9.816v0-0.327c6.98 0.436 12.215 2.879 15.705 7.329 3.49 4.493 6.544 11.43 9.161 20.809v0l19.959 66.42h-22.904l-17.668-65.111c-1.745-6.108-3.97-11.626-6.675-16.556-2.748-4.886-7.176-7.329-13.284-7.329v0h-23.557zM166.35 39.021v77.544h28.792c10.034 0 17.079-2.356 21.137-7.067 4.014-4.668 6.02-11.583 6.02-20.744v0-26.175c0-8.071-1.898-14.026-5.693-17.864-3.839-3.795-9.685-5.693-17.537-5.694v0z" fill="#000000" fill-rule="nonzero" stroke="none" stroke-width="1" stroke-linecap="butt" stroke-linejoin="miter" stroke-miterlimit="10" stroke-dasharray="" stroke-dashoffset="0" font-family="none" font-weight="none" font-size="none" text-anchor="none" style="mix-blend-mode: normal" data-fill-palette-color="tertiary"></path></g></g><g transform="matrix(1,0,0,1,144.9214471780029,37.08)"><svg viewBox="0 0 105.67710564399422 173.04" height="173.04" width="105.67710564399422"><g><svg viewBox="0 0 105.67710564399422 173.04" height="173.04" width="105.67710564399422"><g><svg viewBox="0 0 105.67710564399422 173.04" height="173.04" width="105.67710564399422"><g><svg viewBox="0 0 105.67710564399422 173.04" height="173.04" width="105.67710564399422"><g id="textblocktransform"><svg viewBox="0 0 105.67710564399422 173.04" height="173.04" width="105.67710564399422" id="textblock"><g><svg viewBox="0 0 105.67710564399422 173.04" height="173.04" width="105.67710564399422"><g transform="matrix(1,0,0,1,0,0)"><svg width="105.67710564399422" viewBox="0.1499999999999999 -32.55 22.1 35.55" height="173.04" data-palette-color="#034b92"><path d="M6.4 0L3.15 0 3.15-29.55 12.45-29.55Q14.95-29.55 16.5-28.38 18.05-27.2 18.05-24.65L18.05-24.65 18.05-19.85Q18.05-17.3 16.53-15.9 15-14.5 12.4-14.4L12.4-14.4 12.4-14.45Q14-14.35 14.8-13.33 15.6-12.3 16.2-10.15L16.2-10.15 19.25 0 15.75 0 13.05-9.95Q12.65-11.35 12.03-12.48 11.4-13.6 10-13.6L10-13.6 6.4-13.6 6.4 0ZM6.4-27.7L6.4-15.85 10.8-15.85Q13.1-15.85 14.03-16.93 14.95-18 14.95-20.1L14.95-20.1 14.95-24.1Q14.95-25.95 14.08-26.83 13.2-27.7 11.4-27.7L11.4-27.7 6.4-27.7Z" opacity="1" transform="matrix(1,0,0,1,0,0)" fill="#000000" class="wordmark-text-0" data-fill-palette-color="primary" id="text-0"></path></svg></g></svg></g></svg></g></svg></g></svg></g></svg></g></svg></g></svg></g><defs></defs></svg><rect width="395.52" height="247.2" fill="none" stroke="none" visibility="hidden"></rect></g></svg></g></svg>