<svg width="181" height="42" viewBox="0 0 181 42" fill="none" xmlns="http://www.w3.org/2000/svg">
<path d="M21 0C32.598 0 42 9.40202 42 21C42 32.598 32.598 42 21 42C9.40202 42 0 32.598 0 21C0 9.40202 9.40202 0 21 0Z" fill="#191F29"/>
<path d="M26.2766 16.2114H15.7235C14.8963 16.2114 14.2258 16.8819 14.2258 17.709V28.2622C14.2258 29.0893 14.8963 29.7598 15.7235 29.7598H26.2766C27.1037 29.7598 27.7742 29.0893 27.7742 28.2622V17.709C27.7742 16.8819 27.1037 16.2114 26.2766 16.2114Z" stroke="white" stroke-width="2"/>
<path d="M21.6773 18.2437H20.3225V27.7276H21.6773V18.2437Z" fill="white"/>
<path fill-rule="evenodd" clip-rule="evenodd" d="M13.601 11.5161C13.1978 11.5161 12.8708 11.7556 12.8708 12.051V12.3362C12.8708 12.6315 13.1978 12.871 13.601 12.871H20.3225V14.1792H21.6773V12.871H28.3988C28.802 12.871 29.1289 12.6315 29.1289 12.3362V12.051C29.1289 11.7556 28.802 11.5161 28.3988 11.5161H13.601Z" fill="white"/>
<path d="M157.453 15.7385C157.802 15.6576 158.156 15.6048 158.512 15.5807H163.258C163.288 15.5837 163.228 15.5783 163.258 15.5807V19.1588H163.255V19.1778H159.551C158.785 19.2081 158.048 19.4904 157.45 19.984C156.828 20.4972 156.391 21.2094 156.21 22.0068C156.143 22.3209 156.11 22.6418 156.113 22.9634V31.8696H152.435V15.5807H155.167V17.426C155.813 16.6976 156.46 15.971 157.453 15.7385Z" fill="#191F29"/>
<path fill-rule="evenodd" clip-rule="evenodd" d="M146.932 17.4458V15.5806H149.67C149.67 20.9942 149.67 26.4078 149.67 31.8214H146.932V29.8509L145.684 30.7027C144.714 31.4227 143.597 31.9048 142.417 32.1119C139.821 32.5677 136.956 31.6348 135.149 29.7144C132.744 27.1566 132.316 23.0898 133.653 19.9191C134.785 17.3089 136.759 15.744 139.453 15.108C141.713 14.5743 143.767 15.108 145.655 16.4269C146.051 16.7034 146.415 17.0352 146.795 17.3421L146.932 17.4458ZM141.985 28.5211C141.17 28.638 140.358 28.5773 139.58 28.2944C138.519 27.9481 137.621 27.1376 137.153 26.1017C136.764 25.2996 136.562 24.4153 136.566 23.5193C136.57 22.6234 136.778 21.7407 137.175 20.9421C137.862 19.5016 139.067 18.7854 140.591 18.567C141.216 18.4682 141.854 18.5087 142.462 18.6857C143.07 18.8627 143.634 19.1721 144.115 19.5929C144.714 20.0619 145.196 20.6686 145.524 21.364C145.852 22.0595 146.016 22.8242 146.002 23.5966C145.983 24.7649 145.574 25.891 144.842 26.7872C144.112 27.6834 143.103 28.2954 141.985 28.5211Z" fill="#191F29"/>
<path d="M90.8611 24.6013V15.5789H94.5191C94.5191 21.0208 94.5191 26.4627 94.5191 31.9047H91.8094V30.1565C90.7384 31.2128 89.5204 32.0058 87.9868 32.1774C86.5845 32.3446 85.1653 32.0961 83.8965 31.4612C81.2234 30.1359 79.9228 27.4332 79.9356 24.5404V15.5652H83.5598V24.7312C83.5497 25.4154 83.7041 26.0915 84.0096 26.6999C85.3685 29.3462 89.2495 29.0468 90.4851 26.3658C90.7391 25.8144 90.8678 25.211 90.8611 24.6013Z" fill="#191F29"/>
<path d="M112.452 18.2729L103.833 28.4635C104.885 28.8685 106.043 28.8944 107.112 28.5367C108.181 28.1791 109.094 27.4599 109.695 26.5016C110.6 27.39 111.488 28.2644 112.407 29.1725C112.129 29.4724 111.883 29.7695 111.605 30.0357C110.272 31.3459 108.546 32.1747 106.696 32.3928C103.752 32.746 101.205 31.9052 99.152 29.7331C97.9028 28.4092 97.1292 26.7039 96.9517 24.8872C96.7376 23.2598 96.9517 21.6042 97.5729 20.0862C98.0633 18.8404 98.8552 17.7375 99.8761 16.8776C100.898 16.0176 102.116 15.4279 103.421 15.1619C106.671 14.422 109.519 15.274 111.892 17.6563C112.081 17.8301 112.246 18.0375 112.452 18.2729ZM107.389 19.0072C106.858 18.7539 106.278 18.6209 105.69 18.6176C103.557 18.4915 101.572 19.8969 100.957 21.9388C100.617 23.049 100.596 24.2334 100.895 25.3553C101.006 25.8273 101.215 26.2704 101.508 26.6557L107.389 19.0072Z" fill="#191F29"/>
<path d="M65.6421 10.1613V13.913H58.7925V31.8315H54.9571V13.913H48.0967V10.1613H65.6421Z" fill="#191F29"/>
<path d="M170.337 37.9931V34.4094H170.708H172.742C174.82 34.4757 176.755 32.8835 176.858 30.8067L176.849 30.7971C175.818 31.6308 173.685 31.855 173.685 31.855L173.691 31.8494C173.273 31.9089 172.848 31.9113 172.425 31.855C171.095 31.7353 169.823 31.2498 168.749 30.4519C167.35 29.419 166.409 27.8758 166.127 26.153C166.025 25.5554 165.974 24.95 165.974 24.3435C165.96 21.4242 165.974 18.504 165.974 15.5833H169.581V24.4763C169.566 24.9875 169.64 25.4972 169.802 25.9823C170.278 27.3232 171.217 28.0871 172.624 28.3282C174.896 28.7209 176.726 26.6785 176.853 24.8067C176.853 24.6117 176.869 24.4167 176.869 24.2244V15.5806H180.551C180.551 20.2961 180.576 25.0274 180.551 29.7367C180.529 32.9412 179.027 35.3114 176.312 36.9204C175.064 37.6539 173.641 38.0287 172.197 38.004L170.337 37.9931Z" fill="#191F29"/>
<path d="M71.4049 15.739C71.7537 15.6581 72.108 15.6054 72.4643 15.5812H77.2103C77.2401 15.5843 77.1805 15.5789 77.2103 15.5812V19.1593H77.2076V19.1783H73.5035C72.7373 19.2087 72.0003 19.4909 71.4021 19.9845C70.7803 20.4978 70.3433 21.2099 70.1618 22.0073C70.0947 22.3214 70.0622 22.6424 70.0649 22.964V31.8701H66.3872V15.5812H69.1192V17.4265C69.7655 16.6982 70.4118 15.9715 71.4049 15.739Z" fill="#191F29"/>
<path d="M118.977 22.8385V31.8251H115.161C115.161 26.4047 115.161 20.9844 115.161 15.5641H117.987V17.3054C119.105 16.2531 120.376 15.4633 121.975 15.2924C123.438 15.1259 124.919 15.3734 126.242 16.0057C129.031 17.3259 130.387 20.0177 130.375 22.8991V31.8387H126.594V22.7091C126.604 22.0276 126.443 21.3542 126.124 20.7482C124.707 18.1124 120.658 18.4105 119.369 21.081C119.104 21.6301 118.97 22.2311 118.977 22.8385Z" fill="#191F29"/>
</svg>
